<svg xmlns="http://www.w3.org/2000/svg" width="80" height="80" viewBox="0 0 80 80">
    <defs>
        <linearGradient id="a" x1="120.142%" x2="22.827%" y1="0%" y2="129.046%">
            <stop offset="0%" stop-color="#76C481"/>
            <stop offset="100%" stop-color="#A6D278"/>
        </linearGradient>
    </defs>
    <g fill="none" fill-rule="evenodd">
        <path fill="url(#a)" fill-rule="nonzero" d="M13 0C5.824 0 0 5.824 0 13s5.824 13 13 13 13-5.824 13-13S20.176 0 13 0zm4.693 8.242a2.502 2.502 0 0 1 2.509 2.509 2.502 2.502 0 0 1-2.509 2.509 2.502 2.502 0 0 1-2.509-2.509c-.013-1.391 1.118-2.509 2.509-2.509zm-7.8-2.054a3.074 3.074 0 0 1 3.068 3.068 3.074 3.074 0 0 1-3.068 3.068 3.074 3.074 0 0 1-3.068-3.068 3.057 3.057 0 0 1 3.068-3.068zm0 11.869v4.875a10.409 10.409 0 0 1-6.682-6.448c1.365-1.456 4.771-2.197 6.682-2.197.689 0 1.56.104 2.47.286-2.132 1.131-2.47 2.626-2.47 3.484zM13 23.4c-.351 0-.689-.013-1.027-.052v-5.291c0-1.846 3.822-2.769 5.72-2.769 1.391 0 3.796.507 4.992 1.495C21.164 20.644 17.407 23.4 13 23.4z" transform="translate(27 27)"/>
    </g>
</svg>
