<svg xmlns="http://www.w3.org/2000/svg" width="80" height="80" viewBox="0 0 80 80">
    <defs>
        <linearGradient id="b" x1="120.142%" x2="22.827%" y1="0%" y2="129.046%">
            <stop offset="0%" stop-color="#76C481"/>
            <stop offset="100%" stop-color="#A6D278"/>
        </linearGradient>
    </defs>
    <g fill="none" fill-rule="evenodd">
        <path fill="url(#b)" fill-rule="nonzero" d="M18.056 15.4h-4.167c-.764 0-1.389.63-1.389 1.4V21c0 .77.625 1.4 1.389 1.4h4.167c.763 0 1.388-.63 1.388-1.4v-4.2c0-.77-.625-1.4-1.388-1.4zm0-14v1.4H6.944V1.4C6.944.63 6.32 0 5.556 0c-.764 0-1.39.63-1.39 1.4v1.4H2.779C1.236 2.8.014 4.06.014 5.6L0 25.2C0 26.74 1.236 28 2.778 28h19.444C23.75 28 25 26.74 25 25.2V5.6c0-1.54-1.25-2.8-2.778-2.8h-1.389V1.4c0-.77-.625-1.4-1.389-1.4-.763 0-1.388.63-1.388 1.4zm2.777 23.8H4.167c-.764 0-1.39-.63-1.39-1.4v-14h19.445v14c0 .77-.625 1.4-1.389 1.4z" filter="url(#a)" transform="translate(28 26)"/>
    </g>
</svg>
