<svg xmlns="http://www.w3.org/2000/svg" width="80" height="80" viewBox="0 0 80 80">
    <defs>
        <linearGradient id="a" x1="120.142%" x2="22.827%" y1="0%" y2="129.046%">
            <stop offset="0%" stop-color="#76C481"/>
            <stop offset="100%" stop-color="#A6D278"/>
        </linearGradient>
    </defs>
    <g fill="none" fill-rule="evenodd">
        <g fill="url(#a)" fill-rule="nonzero" transform="translate(28 28)">
            <path d="M12 19.027l5.533 3.346c1.014.614 2.254-.293 1.987-1.44l-1.467-6.293 4.894-4.24c.893-.773.413-2.24-.76-2.333l-6.44-.547-2.52-5.947c-.454-1.08-2-1.08-2.454 0l-2.52 5.934-6.44.546c-1.173.094-1.653 1.56-.76 2.334l4.894 4.24L4.48 20.92c-.267 1.147.973 2.053 1.987 1.44L12 19.027z"/>
        </g>
    </g>
</svg>
