<svg xmlns="http://www.w3.org/2000/svg" width="65" height="65" viewBox="0 0 65 65">
    <defs>
        <linearGradient id="a" x1="120.142%" x2="22.827%" y1="0%" y2="129.046%">
            <stop offset="0%" stop-color="#76C481"/>
            <stop offset="100%" stop-color="#A6D278"/>
        </linearGradient>
    </defs>
    <g fill="none" fill-rule="evenodd">
        <g stroke="url(#a)" stroke-linecap="round" stroke-linejoin="round" stroke-width="3" transform="translate(17 17)">
            <circle cx="16" cy="16" r="4.364"/>
            <path d="M26.764 20.364a2.4 2.4 0 0 0 .48 2.647l.087.087a2.91 2.91 0 0 1-2.058 4.97 2.91 2.91 0 0 1-2.058-.853l-.088-.088a2.4 2.4 0 0 0-2.647-.48 2.4 2.4 0 0 0-1.455 2.197v.247a2.91 2.91 0 1 1-5.818 0v-.131a2.4 2.4 0 0 0-1.57-2.196 2.4 2.4 0 0 0-2.648.48l-.087.087a2.91 2.91 0 0 1-4.97-2.058c0-.772.307-1.513.853-2.058l.088-.088a2.4 2.4 0 0 0 .48-2.647 2.4 2.4 0 0 0-2.197-1.455H2.91a2.91 2.91 0 1 1 0-5.818h.131a2.4 2.4 0 0 0 2.196-1.57 2.4 2.4 0 0 0-.48-2.648l-.087-.087a2.91 2.91 0 0 1 2.058-4.97 2.91 2.91 0 0 1 2.058.853l.088.088a2.4 2.4 0 0 0 2.647.48h.116a2.4 2.4 0 0 0 1.455-2.197V2.91a2.91 2.91 0 0 1 5.818 0v.131a2.4 2.4 0 0 0 1.455 2.196 2.4 2.4 0 0 0 2.647-.48l.087-.087a2.91 2.91 0 0 1 4.97 2.058 2.91 2.91 0 0 1-.853 2.058l-.088.088a2.4 2.4 0 0 0-.48 2.647v.116a2.4 2.4 0 0 0 2.197 1.455h.247a2.91 2.91 0 0 1 0 5.818h-.131a2.4 2.4 0 0 0-2.196 1.455z"/>
        </g>
        <path d="M0 0h65v65H0z"/>
    </g>
</svg>
