<svg xmlns="http://www.w3.org/2000/svg" width="84" height="82" viewBox="0 0 84 82">
    <path fill="#000" fill-rule="nonzero" d="M78.285 20.966c-3.752-6.428-8.841-11.518-15.269-15.27C56.587 1.947 49.57.07 41.956.07c-7.612 0-14.632 1.876-21.06 5.627-6.428 3.751-11.517 8.84-15.269 15.27C1.876 27.393 0 34.413 0 42.024c0 9.142 2.667 17.363 8.003 24.665 5.336 7.303 12.228 12.356 20.678 15.16.983.182 1.711.054 2.185-.382.473-.437.71-.984.71-1.638 0-.11-.01-1.093-.028-2.95a487.891 487.891 0 0 1-.028-4.862l-1.256.218c-.801.147-1.812.209-3.032.191a23.101 23.101 0 0 1-3.797-.382c-1.311-.236-2.531-.782-3.66-1.638-1.129-.856-1.93-1.976-2.403-3.36l-.547-1.256c-.364-.837-.937-1.767-1.72-2.786-.783-1.02-1.575-1.712-2.377-2.076l-.382-.274a4.01 4.01 0 0 1-.71-.656 2.997 2.997 0 0 1-.492-.765c-.109-.255-.018-.465.273-.629.292-.164.82-.244 1.585-.244l1.092.163c.728.146 1.63.582 2.704 1.311a8.817 8.817 0 0 1 2.65 2.84c.838 1.494 1.847 2.632 3.032 3.415 1.183.783 2.376 1.174 3.578 1.174 1.201 0 2.24-.091 3.114-.272a10.866 10.866 0 0 0 2.458-.82c.328-2.441 1.22-4.317 2.676-5.628-2.075-.218-3.942-.546-5.6-.983-1.656-.438-3.368-1.148-5.134-2.132-1.767-.983-3.233-2.203-4.398-3.66-1.165-1.456-2.122-3.369-2.868-5.736-.746-2.367-1.12-5.099-1.12-8.194 0-4.408 1.44-8.159 4.317-11.255-1.348-3.313-1.22-7.028.382-11.143 1.056-.329 2.622-.082 4.698.737 2.076.82 3.596 1.521 4.562 2.104.965.581 1.739 1.074 2.322 1.474a38.792 38.792 0 0 1 10.489-1.42 38.8 38.8 0 0 1 10.49 1.42l2.076-1.31c1.42-.875 3.096-1.676 5.025-2.404 1.93-.728 3.406-.929 4.426-.6 1.639 4.115 1.785 7.83.436 11.143 2.877 3.096 4.317 6.848 4.317 11.254 0 3.096-.375 5.836-1.12 8.222-.746 2.386-1.71 4.297-2.894 5.736-1.185 1.439-2.66 2.65-4.426 3.633-1.767.983-3.479 1.693-5.136 2.13-1.657.438-3.523.767-5.599.985 1.893 1.639 2.84 4.225 2.84 7.757v11.526c0 .655.228 1.202.683 1.638.456.436 1.175.565 2.158.382 8.45-2.804 15.343-7.857 20.678-15.16 5.335-7.301 8.003-15.522 8.003-24.665-.002-7.61-1.878-14.629-5.628-21.057z"/>
</svg>
