<svg xmlns="http://www.w3.org/2000/svg" width="275" height="48" viewBox="0 0 275 48">
    <path fill="#FFF" fill-rule="evenodd" d="M47.852 24c0 13.246-10.72 24-23.926 24C10.721 48 0 37.246 0 24S10.721 0 23.926 0c13.205 0 23.926 10.754 23.926 24zm-7.208 0c0-9.722-7.45-17.62-16.657-17.62S7.329 14.278 7.329 24c0 9.722 7.45 17.62 16.658 17.62 9.207 0 16.657-7.898 16.657-17.62zm59.907-9.782c0 7.17-5.815 13.002-12.963 13.002H62.39v19.565H55.12V1.215h32.467c7.148 0 12.963 5.772 12.963 13.003zm-7.27 0c0-3.646-2.543-6.623-5.693-6.623H62.39V20.84h25.198c3.15 0 5.694-2.978 5.694-6.623zM154.462 24c0 13.246-10.722 24-23.927 24s-23.926-10.754-23.926-24 10.721-24 23.926-24c13.205 0 23.926 10.754 23.926 24zm-7.209 0c0-9.722-7.45-17.62-16.657-17.62S113.937 14.278 113.937 24c0 9.722 7.45 17.62 16.658 17.62 9.207 0 16.657-7.898 16.657-17.62zm21.746-22.785v45.57h-7.269V1.215h7.269zm53.91 0v46.42l-38.161-32.384v31.534h-7.269V.365l38.16 32.384V1.215h7.27zm52.092 0v6.38h-19.08v39.19h-7.27V7.595h-19.08v-6.38H275z"/>
</svg>
