<svg xmlns="http://www.w3.org/2000/svg" width="149" height="146" viewBox="0 0 149 146">
    <path fill="#FFF" fill-rule="nonzero" d="M139.006 37.269c-6.662-11.465-15.698-20.542-27.112-27.233C100.48 3.345 88.017 0 74.5 0 60.983 0 48.517 3.346 37.104 10.036c-11.414 6.69-20.45 15.768-27.112 27.233C3.33 48.734 0 61.254 0 74.828c0 16.305 4.736 30.968 14.211 43.991 9.474 13.024 21.713 22.036 36.715 27.038 1.747.325 3.04.096 3.88-.682.841-.778 1.261-1.754 1.261-2.922 0-.194-.017-1.948-.049-5.26a874.024 874.024 0 0 1-.049-8.671l-2.231.388c-1.423.261-3.217.372-5.384.34a40.844 40.844 0 0 1-6.741-.681c-2.329-.42-4.495-1.395-6.5-2.921-2.004-1.527-3.426-3.525-4.267-5.992l-.97-2.242c-.647-1.492-1.665-3.15-3.055-4.968-1.391-1.82-2.797-3.053-4.22-3.702l-.68-.489a7.134 7.134 0 0 1-1.26-1.17 5.348 5.348 0 0 1-.872-1.364c-.195-.455-.034-.83.484-1.122.519-.293 1.455-.436 2.814-.436l1.939.291c1.293.26 2.893 1.039 4.802 2.338 1.907 1.3 3.475 2.988 4.704 5.066 1.488 2.663 3.281 4.693 5.384 6.09 2.101 1.397 4.22 2.094 6.353 2.094 2.134 0 3.977-.162 5.53-.486a19.234 19.234 0 0 0 4.364-1.462c.582-4.354 2.167-7.698 4.753-10.036-3.686-.39-7-.975-9.943-1.755-2.942-.78-5.981-2.046-9.117-3.801-3.138-1.753-5.741-3.93-7.81-6.527-2.069-2.599-3.767-6.01-5.092-10.231-1.325-4.223-1.988-9.094-1.988-14.615 0-7.861 2.555-14.55 7.664-20.072-2.393-5.91-2.167-12.536.678-19.876 1.876-.585 4.657-.146 8.343 1.315 3.686 1.462 6.385 2.714 8.1 3.752 1.714 1.038 3.088 1.917 4.123 2.63 6.015-1.688 12.223-2.532 18.625-2.532 6.401 0 12.61.844 18.626 2.532l3.686-2.337c2.521-1.56 5.498-2.989 8.923-4.288 3.428-1.298 6.048-1.656 7.86-1.07 2.91 7.34 3.168 13.964.774 19.875 5.109 5.521 7.665 12.212 7.665 20.072 0 5.52-.665 10.407-1.989 14.663-1.325 4.256-3.037 7.663-5.138 10.23-2.104 2.567-4.723 4.727-7.86 6.48-3.136 1.754-6.177 3.02-9.119 3.8-2.943.78-6.256 1.367-9.942 1.756 3.362 2.922 5.043 7.534 5.043 13.835v20.557c0 1.167.404 2.142 1.213 2.922.809.777 2.085 1.006 3.831.68 15.005-5 27.244-14.013 36.718-27.037C144.262 105.793 149 91.131 149 74.825c-.003-13.572-3.336-26.091-9.994-37.556z"/>
</svg>
