<svg xmlns="http://www.w3.org/2000/svg" width="121" height="61" viewBox="0 0 121 61">
    <g fill="#D5D5D5" fill-rule="evenodd">
        <path fill-rule="nonzero" d="M60.5 0C27.087 0 0 13.655 0 30.5S27.087 61 60.5 61 121 47.345 121 30.5 93.913 0 60.5 0zm0 57.159c-29.452 0-53.413-11.96-53.413-26.66 0-14.698 23.961-26.655 53.412-26.655 29.452 0 53.413 11.957 53.413 26.655 0 14.7-23.961 26.66-53.413 26.66z"/>
        <path d="M55.101 16.869h1.048c.366 0 .653.268.653.61v27.868c0 .369.307.653.698.653h7.798c.393 0 .702-.284.702-.653V15.655c0-.36-.314-.655-.702-.655H55.101c-.101 0-.101.09-.101.161v1.549c0 .067 0 .159.101.159zM71.6 46h7.133c.346 0 .713-.276.855-.644l6.084-19.237c0-.005.07-.268.297-.268.217 0 .29.266.292.268l6.149 19.237c.147.374.509.644.86.644h7.13a.56.56 0 0 0 .47-.228.687.687 0 0 0 .107-.571l-9.925-29.768c-.154-.385-.542-.433-.862-.433H78.804a.17.17 0 0 0-.162.161v1.549c0 .08.08.159.162.159h.838c.364 0 .608.213.608.533 0 .105-.023.216-.071.352l-9.156 27.449a.66.66 0 0 0 .11.567c.113.15.279.23.468.23zM22.164 16.869c.35 0 .625.268.625.61v27.868c0 .369.29.653.663.653h7.226c.364 0 .66-.293.66-.653v-11.72c0-.255.12-.401.33-.401.249 0 .365.165.457.297.01.015.019.03.03.042l8.51 11.723c.275.406.773.712 1.16.712h8.579c.202 0 .424-.142.529-.339.112-.212.083-.452-.08-.678-.025-.038-10.757-14.938-10.865-15.089-.032-.046-.046-.075-.066-.109a.478.478 0 0 1-.055-.134c-.007-.031-.019-.058-.019-.1 0-.126.063-.253.131-.39l.009-.016 9.08-13.201a.613.613 0 0 0 .002-.628.606.606 0 0 0-.525-.316h-8.144c-.386 0-.888.306-1.167.712l-7.08 9.83c-.22.321-.437.338-.479.338h-.006c-.198 0-.33-.13-.33-.328v-9.897a.66.66 0 0 0-.661-.655h-9.513a.17.17 0 0 0-.165.161v1.549c0 .081.08.159.165.159h1z"/>
    </g>
</svg>
