<svg xmlns="http://www.w3.org/2000/svg" width="24" height="25" viewBox="0 0 24 25">
    <g fill="none" fill-rule="nonzero" opacity=".4">
        <path fill="#000" d="M12.995 11.09v-.038a1.016 1.016 0 0 1-.025.038h.025z"/>
        <path fill="#071339" fill-opacity=".3" d="M22.207.32H1.99C1.022.32.237 1.086.237 2.03v20.455c0 .943.785 1.71 1.753 1.71h20.217c.97 0 1.754-.767 1.754-1.71V2.03c0-.944-.785-1.71-1.754-1.71zM7.428 20.306H3.845V9.526h3.583v10.78zM5.637 8.053h-.024c-1.202 0-1.98-.828-1.98-1.862 0-1.058.802-1.863 2.027-1.863 1.226 0 1.98.805 2.004 1.863 0 1.034-.778 1.862-2.027 1.862zm14.712 12.253h-3.583v-5.769c0-1.448-.518-2.437-1.815-2.437-.99 0-1.58.667-1.839 1.31-.094.23-.117.552-.117.875v6.02H9.41s.047-9.77 0-10.78h3.584v1.526c.476-.734 1.327-1.78 3.23-1.78 2.357 0 4.125 1.541 4.125 4.853v6.182z"/>
    </g>
</svg>
