<svg xmlns="http://www.w3.org/2000/svg" width="128" height="15" viewBox="0 0 128 15">
    <defs>
        <linearGradient id="a" x1="40.706%" x2="113.206%" y1="75.088%" y2="-30.942%">
            <stop offset="0%" stop-color="#56C5CF"/>
            <stop offset="100%" stop-color="#80C77F"/>
        </linearGradient>
    </defs>
    <g fill="none" fill-rule="evenodd">
        <path fill="#FFF" d="M37.59 10.16l1.815-8.715h2.035l-2.724 11.578h-1.961L34.509 4.57l-2.294 8.453h-1.97L27.523 1.445h2.035l1.832 8.7 2.253-8.7h1.718l2.23 8.715zm14.323-2.306h-4.848v3.563h5.666v1.606h-7.716V1.445h7.66v1.622h-5.61v3.197h4.848v1.59zm4.563 5.169V1.445h4.045c1.335 0 2.35.262 3.048.787.697.525 1.045 1.307 1.045 2.346 0 .53-.146 1.007-.437 1.431-.292.424-.72.753-1.281.986.638.17 1.13.49 1.48.958.348.47.522 1.033.522 1.69 0 1.087-.355 1.922-1.066 2.505-.71.583-1.728.875-3.052.875h-4.304zm2.05-5.225v3.619h2.279c.643 0 1.145-.157 1.507-.47.362-.312.543-.747.543-1.304 0-1.203-.626-1.818-1.88-1.845h-2.448zm0-1.479h2.011c.638 0 1.136-.141 1.496-.425.359-.284.539-.685.539-1.205 0-.572-.166-.986-.499-1.24-.332-.255-.85-.382-1.552-.382h-1.994v3.252zm16.666 3.722c0-.51-.182-.901-.547-1.177-.364-.276-1.022-.554-1.973-.835-.952-.281-1.708-.594-2.27-.938-1.075-.663-1.613-1.527-1.613-2.593 0-.933.388-1.701 1.163-2.306.775-.604 1.782-.906 3.02-.906.82 0 1.553.148 2.196.445.643.297 1.148.72 1.516 1.268.367.55.551 1.157.551 1.825h-2.043c0-.604-.193-1.077-.58-1.42-.386-.341-.938-.512-1.657-.512-.67 0-1.19.14-1.56.421-.37.281-.555.674-.555 1.177 0 .424.2.778.6 1.062.4.284 1.059.56 1.977.827.919.268 1.657.573 2.213.914.557.342.965.735 1.224 1.177.26.443.39.961.39 1.555 0 .965-.378 1.732-1.132 2.302-.753.57-1.776.855-3.068.855a5.861 5.861 0 0 1-2.354-.465c-.716-.31-1.273-.738-1.67-1.285-.397-.546-.596-1.182-.596-1.908h2.05c0 .657.222 1.166.666 1.527.443.36 1.078.54 1.904.54.714 0 1.25-.141 1.61-.425.359-.284.538-.659.538-1.125zm14.931-.787c-.119 1.235-.583 2.198-1.394 2.89-.81.692-1.889 1.038-3.234 1.038-.94 0-1.769-.219-2.485-.656-.716-.437-1.268-1.06-1.657-1.865-.39-.806-.592-1.741-.608-2.807V6.773c0-1.092.197-2.055.592-2.887.394-.832.96-1.474 1.698-1.924.737-.451 1.59-.676 2.557-.676 1.302 0 2.35.347 3.145 1.041.795.695 1.257 1.676 1.386 2.943h-2.042c-.098-.833-.345-1.433-.742-1.801-.397-.369-.98-.553-1.747-.553-.891 0-1.576.32-2.055.958-.478.639-.722 1.576-.733 2.811v1.026c0 1.251.228 2.205.685 2.863.456.657 1.125.986 2.006.986.805 0 1.41-.178 1.816-.533.405-.355.662-.946.77-1.773h2.042zm13.326-1.718c0 1.134-.2 2.13-.6 2.986-.4.856-.97 1.514-1.714 1.972-.743.459-1.598.688-2.565.688-.957 0-1.81-.23-2.558-.688-.748-.458-1.326-1.112-1.734-1.96-.408-.848-.615-1.826-.62-2.934v-.652c0-1.13.203-2.126.611-2.99.408-.865.984-1.526 1.727-1.984.743-.459 1.595-.688 2.557-.688s1.815.226 2.558.68c.743.453 1.317 1.105 1.722 1.956.405.85.61 1.84.616 2.97v.644zm-2.05-.604c0-1.283-.248-2.267-.742-2.95-.495-.684-1.196-1.026-2.104-1.026-.886 0-1.579.34-2.079 1.021-.5.682-.755 1.645-.766 2.891v.668c0 1.272.253 2.256.758 2.95.505.695 1.206 1.042 2.104 1.042.907 0 1.606-.34 2.095-1.018.489-.679.733-1.67.733-2.974v-.604zm8.219 1.789v4.302h-2.051V1.445h4.515c1.318 0 2.365.336 3.14 1.01.776.673 1.164 1.564 1.164 2.672 0 1.134-.38 2.017-1.139 2.648-.759.63-1.822.946-3.19.946h-2.44zm0-1.614h2.464c.73 0 1.286-.169 1.67-.505.383-.337.575-.823.575-1.46 0-.625-.194-1.125-.583-1.499-.39-.373-.924-.565-1.605-.576h-2.521v4.04zm17.533.747h-4.848v3.563h5.666v1.606h-7.716V1.445h7.66v1.622h-5.61v3.197h4.848v1.59z"/>
        <path fill="url(#a)" fill-rule="nonzero" d="M6.637 3.153L3.918.52a.301.301 0 0 1-.092-.216c0-.168.138-.304.308-.304H18.06a.149.149 0 1 1 .093.269L.493 13.638a.31.31 0 0 1-.43-.054.295.295 0 0 1-.012-.35l6.615-9.812a.21.21 0 0 0-.029-.27zm12.02-2.146l.017 13.519c0 .08-.032.156-.088.213a.311.311 0 0 1-.436.003l-2.673-2.587a.31.31 0 0 0-.325-.067l-7.31 2.765a.308.308 0 0 1-.395-.171.295.295 0 0 1 .046-.295L18.383.914a.155.155 0 0 1 .215-.024.149.149 0 0 1 .058.117z"/>
    </g>
</svg>
