<svg xmlns="http://www.w3.org/2000/svg" width="24" height="24" viewBox="0 0 24 24">
    <path fill="#071339" fill-opacity=".3" fill-rule="evenodd" d="M1.205 0h21.604C23.461 0 24 .539 24 1.205v21.604c0 .652-.539 1.191-1.19 1.191H1.204A1.2 1.2 0 0 1 0 22.81V1.204C0 .539.539 0 1.205 0zm11.894 5.614a3.68 3.68 0 0 0-1.092 1.375l-.142.34a3.097 3.097 0 0 0-.156.652c-.014.1-.028.199-.028.298v.198l.014.312.057.411h-.015l-.156.014h-.098a8.575 8.575 0 0 1-3.403-.751l-.61-.298c-.113-.056-.226-.127-.325-.184a9.235 9.235 0 0 1-1.843-1.474c-.34-.369-.638-.752-.921-1.163a4.034 4.034 0 0 0-.398 2.637c.014.1.043.199.071.298a3.96 3.96 0 0 0 1.135 1.885l.269.227-.34-.07a9.869 9.869 0 0 1-1.29-.426c.056.879.397 1.687.935 2.325a3.936 3.936 0 0 0 1.956 1.29l-.907.057-.751-.043a4.043 4.043 0 0 0 3.402 2.495c-1.418 1.035-3.176 1.63-5.06 1.644a10.25 10.25 0 0 0 4.706 1.46h1.134c5.33-.297 9.554-4.706 9.554-10.107l-.014-.525c.198-.155.412-.326.596-.51.453-.44.864-.921 1.218-1.432a3.589 3.589 0 0 1-1.941.567h-.072l.03-.014a3.53 3.53 0 0 0 1.445-1.843 9.503 9.503 0 0 1-1.672.638l-.086.014-.425.1a3.573 3.573 0 0 0-2.537-1.12H15.268c-.284 0-.553.028-.823.085-.397.099-.765.255-1.092.468l-.254.17z" opacity=".4"/>
</svg>
